<svg width="24" height="25" viewBox="0 0 24 25" fill="none" xmlns="http://www.w3.org/2000/svg">
<path fill-rule="evenodd" clip-rule="evenodd" d="M16.6665 7.13381C16.5064 7.13381 16.3479 7.16667 16.2 7.23052C16.0522 7.29436 15.9178 7.38795 15.8046 7.50592L6.92978 16.7557L6.28333 19.2262L8.65364 18.5524L17.5284 9.30261C17.6416 9.18464 17.7314 9.04459 17.7927 8.89045C17.8539 8.73631 17.8855 8.57111 17.8855 8.40427C17.8855 8.23742 17.8539 8.07222 17.7927 7.91808C17.7314 7.76395 17.6416 7.62389 17.5284 7.50592C17.4153 7.38795 17.2809 7.29436 17.133 7.23052C16.9851 7.16667 16.8266 7.13381 16.6665 7.13381ZM15.6898 5.94663C15.9995 5.81295 16.3313 5.74414 16.6665 5.74414C17.0017 5.74414 17.3336 5.81295 17.6432 5.94663C17.9529 6.08031 18.2343 6.27626 18.4713 6.52327C18.7083 6.77029 18.8963 7.06354 19.0245 7.38628C19.1528 7.70902 19.2188 8.05493 19.2188 8.40427C19.2188 8.7536 19.1528 9.09951 19.0245 9.42225C18.8963 9.74499 18.7083 10.0382 18.4713 10.2853L9.47126 19.6655C9.38922 19.751 9.28719 19.8127 9.17526 19.8446L5.5086 20.8868C5.27779 20.9524 5.03095 20.8841 4.86178 20.7078C4.69261 20.5315 4.62706 20.2742 4.69001 20.0336L5.69001 16.212C5.72054 16.0954 5.77974 15.989 5.86178 15.9035L14.8618 6.52327C15.0988 6.27626 15.3801 6.08031 15.6898 5.94663Z" fill="#202020"/>
</svg>
