<svg width="24" height="25" viewBox="0 0 24 25" fill="none" xmlns="http://www.w3.org/2000/svg">
<path fill-rule="evenodd" clip-rule="evenodd" d="M2.14074 12.5C2.25003 12.6889 2.39492 12.9296 2.57441 13.2075C3.03543 13.9213 3.71817 14.8706 4.60454 15.8161C6.39552 17.7264 8.89951 19.5 12 19.5C15.1005 19.5 17.6045 17.7264 19.3955 15.8161C20.2818 14.8706 20.9646 13.9213 21.4256 13.2075C21.6051 12.9296 21.75 12.6889 21.8593 12.5C21.75 12.3111 21.6051 12.0704 21.4256 11.7925C20.9646 11.0787 20.2818 10.1294 19.3955 9.18394C17.6045 7.27356 15.1005 5.5 12 5.5C8.89951 5.5 6.39552 7.27356 4.60454 9.18394C3.71817 10.1294 3.03543 11.0787 2.57441 11.7925C2.39492 12.0704 2.25003 12.3111 2.14074 12.5ZM23 12.5C23.8944 12.0528 23.8943 12.0524 23.8941 12.0521L23.8925 12.0489L23.889 12.042L23.8777 12.0198C23.8681 12.0013 23.8546 11.9753 23.8372 11.9424C23.8025 11.8767 23.752 11.7832 23.686 11.666C23.5542 11.4316 23.3601 11.1015 23.1057 10.7075C22.5979 9.92131 21.8432 8.8706 20.8545 7.81606C18.8955 5.72644 15.8995 3.5 12 3.5C8.10049 3.5 5.10448 5.72644 3.14546 7.81606C2.15683 8.8706 1.40207 9.92131 0.894336 10.7075C0.63985 11.1015 0.445792 11.4316 0.313971 11.666C0.248023 11.7832 0.19754 11.8767 0.162753 11.9424C0.145357 11.9753 0.131875 12.0013 0.122338 12.0198L0.11099 12.042L0.107539 12.0489L0.10637 12.0512C0.106186 12.0516 0.105573 12.0528 1 12.5L0.105573 12.0528C-0.0351909 12.3343 -0.0351909 12.6657 0.105573 12.9472L1 12.5C0.105573 12.9472 0.105389 12.9468 0.105573 12.9472L0.107539 12.9511L0.11099 12.958L0.122338 12.9802C0.131875 12.9987 0.145357 13.0247 0.162753 13.0576C0.19754 13.1233 0.248023 13.2168 0.313971 13.334C0.445792 13.5684 0.63985 13.8985 0.894336 14.2925C1.40207 15.0787 2.15683 16.1294 3.14546 17.1839C5.10448 19.2736 8.10049 21.5 12 21.5C15.8995 21.5 18.8955 19.2736 20.8545 17.1839C21.8432 16.1294 22.5979 15.0787 23.1057 14.2925C23.3601 13.8985 23.5542 13.5684 23.686 13.334C23.752 13.2168 23.8025 13.1233 23.8372 13.0576C23.8546 13.0247 23.8681 12.9987 23.8777 12.9802L23.889 12.958L23.8925 12.9511L23.8936 12.9488C23.8938 12.9484 23.8944 12.9472 23 12.5ZM23 12.5L23.8944 12.9472C24.0352 12.6657 24.0348 12.3336 23.8941 12.0521L23 12.5Z" fill="#202020"/>
<path fill-rule="evenodd" clip-rule="evenodd" d="M12 10.5C10.8954 10.5 10 11.3954 10 12.5C10 13.6046 10.8954 14.5 12 14.5C13.1046 14.5 14 13.6046 14 12.5C14 11.3954 13.1046 10.5 12 10.5ZM8 12.5C8 10.2909 9.79086 8.5 12 8.5C14.2091 8.5 16 10.2909 16 12.5C16 14.7091 14.2091 16.5 12 16.5C9.79086 16.5 8 14.7091 8 12.5Z" fill="#202020"/>
</svg>
