<svg width="28" height="28" viewBox="0 0 28 28" fill="none" xmlns="http://www.w3.org/2000/svg">
<path fill-rule="evenodd" clip-rule="evenodd" d="M4.52513 2.19179C5.1815 1.53542 6.07174 1.16667 7 1.16667H15.1667C15.4761 1.16667 15.7728 1.28958 15.9916 1.50838L24.1583 9.67504C24.3771 9.89384 24.5 10.1906 24.5 10.5V23.3333C24.5 24.2616 24.1313 25.1518 23.4749 25.8082C22.8185 26.4646 21.9283 26.8333 21 26.8333H7C6.07174 26.8333 5.1815 26.4646 4.52513 25.8082C3.86875 25.1518 3.5 24.2616 3.5 23.3333V4.66667C3.5 3.73841 3.86875 2.84817 4.52513 2.19179ZM7 3.5C6.69058 3.5 6.39383 3.62292 6.17504 3.84171C5.95625 4.0605 5.83333 4.35725 5.83333 4.66667V23.3333C5.83333 23.6428 5.95625 23.9395 6.17504 24.1583C6.39383 24.3771 6.69058 24.5 7 24.5H21C21.3094 24.5 21.6062 24.3771 21.825 24.1583C22.0437 23.9395 22.1667 23.6428 22.1667 23.3333V10.9833L14.6834 3.5H7Z" fill="#202020"/>
<path fill-rule="evenodd" clip-rule="evenodd" d="M15.1667 1.16667C15.811 1.16667 16.3333 1.689 16.3333 2.33333V9.33333H23.3333C23.9777 9.33333 24.5 9.85567 24.5 10.5C24.5 11.1443 23.9777 11.6667 23.3333 11.6667H15.1667C14.5223 11.6667 14 11.1443 14 10.5V2.33333C14 1.689 14.5223 1.16667 15.1667 1.16667Z" fill="#202020"/>
</svg>
