<svg width="130" height="144" viewBox="0 0 130 144" fill="none" xmlns="http://www.w3.org/2000/svg">
<path fill-rule="evenodd" clip-rule="evenodd" d="M65 14.6663C51.695 14.6663 38.9349 19.9517 29.5268 29.3598C20.1187 38.7679 14.8333 51.528 14.8333 64.833V126.61C14.8331 127.109 14.9632 127.599 15.2107 128.033C15.4583 128.466 15.8147 128.827 16.2447 129.081C16.6748 129.334 17.1635 129.471 17.6626 129.478C18.1617 129.484 18.6538 129.36 19.0903 129.118L25.8485 125.37C30.1578 122.975 35.0119 121.732 39.9419 121.761C44.8718 121.79 49.7111 123.089 53.992 125.535L57.8907 127.764C60.0559 129 62.5064 129.651 65 129.651C67.4936 129.651 69.9441 129 72.1093 127.764L76.008 125.542C80.2883 123.096 85.1272 121.794 90.0572 121.764C94.9872 121.734 99.8416 122.976 104.151 125.37L110.91 129.118C111.346 129.36 111.838 129.484 112.337 129.478C112.836 129.471 113.325 129.334 113.755 129.081C114.185 128.827 114.542 128.466 114.789 128.033C115.037 127.599 115.167 127.109 115.167 126.61V64.833C115.167 58.245 113.869 51.7216 111.348 45.6351C108.827 39.5486 105.132 34.0182 100.473 29.3598C95.8148 24.7014 90.2845 21.0062 84.198 18.4851C78.1115 15.9639 71.588 14.6663 65 14.6663ZM0.5 64.833C0.5 47.7266 7.29552 31.3207 19.3916 19.2246C31.4877 7.12853 47.8935 0.333008 65 0.333008C82.1065 0.333008 98.5123 7.12853 110.608 19.2246C122.704 31.3207 129.5 47.7266 129.5 64.833V126.61C129.5 139.725 115.41 148.017 103.944 141.653L97.1927 137.897C95.0373 136.7 92.6094 136.078 90.1437 136.093C87.678 136.108 85.2579 136.759 83.1173 137.983L79.2258 140.205C74.8936 142.681 69.99 143.984 65 143.984C60.01 143.984 55.1064 142.681 50.7742 140.205L46.8827 137.983C44.7421 136.759 42.322 136.108 39.8563 136.093C37.3906 136.078 34.9627 136.7 32.8073 137.897L26.0563 141.653C14.5897 148.017 0.5 139.725 0.5 126.61V64.833ZM54.25 61.2497C54.25 64.1008 53.1174 66.8351 51.1014 68.8511C49.0854 70.8671 46.3511 71.9997 43.5 71.9997C40.6489 71.9997 37.9146 70.8671 35.8986 68.8511C33.8826 66.8351 32.75 64.1008 32.75 61.2497C32.75 58.3986 33.8826 55.6643 35.8986 53.6483C37.9146 51.6323 40.6489 50.4997 43.5 50.4997C46.3511 50.4997 49.0854 51.6323 51.1014 53.6483C53.1174 55.6643 54.25 58.3986 54.25 61.2497ZM86.5 71.9997C89.3511 71.9997 92.0854 70.8671 94.1014 68.8511C96.1174 66.8351 97.25 64.1008 97.25 61.2497C97.25 58.3986 96.1174 55.6643 94.1014 53.6483C92.0854 51.6323 89.3511 50.4997 86.5 50.4997C83.6489 50.4997 80.9146 51.6323 78.8986 53.6483C76.8826 55.6643 75.75 58.3986 75.75 61.2497C75.75 64.1008 76.8826 66.8351 78.8986 68.8511C80.9146 70.8671 83.6489 71.9997 86.5 71.9997Z" fill="#B2DFFC"/>
</svg>
