<svg width="28" height="28" viewBox="0 0 28 28" fill="none" xmlns="http://www.w3.org/2000/svg">
<path fill-rule="evenodd" clip-rule="evenodd" d="M13.2837 1.41243C13.705 1.08475 14.2949 1.08475 14.7162 1.41243L25.2162 9.57909C25.5004 9.80013 25.6666 10.14 25.6666 10.5V23.3333C25.6666 24.2616 25.2979 25.1518 24.6415 25.8082C23.9851 26.4646 23.0949 26.8333 22.1666 26.8333H5.83331C4.90505 26.8333 4.01482 26.4646 3.35844 25.8082C2.70206 25.1518 2.33331 24.2616 2.33331 23.3333V10.5C2.33331 10.14 2.49953 9.80013 2.78372 9.57909L13.2837 1.41243ZM4.66665 11.0706V23.3333C4.66665 23.6428 4.78956 23.9395 5.00835 24.1583C5.22715 24.3771 5.52389 24.5 5.83331 24.5H22.1666C22.4761 24.5 22.7728 24.3771 22.9916 24.1583C23.2104 23.9395 23.3333 23.6428 23.3333 23.3333V11.0706L14 3.81134L4.66665 11.0706Z" fill="#202020"/>
<path fill-rule="evenodd" clip-rule="evenodd" d="M9.33331 14C9.33331 13.3557 9.85565 12.8333 10.5 12.8333H17.5C18.1443 12.8333 18.6666 13.3557 18.6666 14V25.6667C18.6666 26.311 18.1443 26.8333 17.5 26.8333C16.8556 26.8333 16.3333 26.311 16.3333 25.6667V15.1667H11.6666V25.6667C11.6666 26.311 11.1443 26.8333 10.5 26.8333C9.85565 26.8333 9.33331 26.311 9.33331 25.6667V14Z" fill="#202020"/>
</svg>
