<svg width="28" height="28" viewBox="0 0 28 28" fill="none" xmlns="http://www.w3.org/2000/svg">
<path fill-rule="evenodd" clip-rule="evenodd" d="M8.16669 7C8.16669 6.35567 8.68902 5.83334 9.33335 5.83334H24.5C25.1444 5.83334 25.6667 6.35567 25.6667 7C25.6667 7.64433 25.1444 8.16667 24.5 8.16667H9.33335C8.68902 8.16667 8.16669 7.64433 8.16669 7Z" fill="#202020"/>
<path fill-rule="evenodd" clip-rule="evenodd" d="M8.16669 14C8.16669 13.3557 8.68902 12.8333 9.33335 12.8333H24.5C25.1444 12.8333 25.6667 13.3557 25.6667 14C25.6667 14.6443 25.1444 15.1667 24.5 15.1667H9.33335C8.68902 15.1667 8.16669 14.6443 8.16669 14Z" fill="#202020"/>
<path fill-rule="evenodd" clip-rule="evenodd" d="M8.16669 21C8.16669 20.3557 8.68902 19.8333 9.33335 19.8333H24.5C25.1444 19.8333 25.6667 20.3557 25.6667 21C25.6667 21.6443 25.1444 22.1667 24.5 22.1667H9.33335C8.68902 22.1667 8.16669 21.6443 8.16669 21Z" fill="#202020"/>
<path fill-rule="evenodd" clip-rule="evenodd" d="M2.33331 7C2.33331 6.35567 2.85565 5.83334 3.49998 5.83334H3.51165C4.15598 5.83334 4.67831 6.35567 4.67831 7C4.67831 7.64433 4.15598 8.16667 3.51165 8.16667H3.49998C2.85565 8.16667 2.33331 7.64433 2.33331 7Z" fill="#202020"/>
<path fill-rule="evenodd" clip-rule="evenodd" d="M2.33331 14C2.33331 13.3557 2.85565 12.8333 3.49998 12.8333H3.51165C4.15598 12.8333 4.67831 13.3557 4.67831 14C4.67831 14.6443 4.15598 15.1667 3.51165 15.1667H3.49998C2.85565 15.1667 2.33331 14.6443 2.33331 14Z" fill="#202020"/>
<path fill-rule="evenodd" clip-rule="evenodd" d="M2.33331 21C2.33331 20.3557 2.85565 19.8333 3.49998 19.8333H3.51165C4.15598 19.8333 4.67831 20.3557 4.67831 21C4.67831 21.6443 4.15598 22.1667 3.51165 22.1667H3.49998C2.85565 22.1667 2.33331 21.6443 2.33331 21Z" fill="#202020"/>
</svg>
