<svg width="28" height="28" viewBox="0 0 28 28" fill="none" xmlns="http://www.w3.org/2000/svg">
<path fill-rule="evenodd" clip-rule="evenodd" d="M5.83331 4.66666C5.52389 4.66666 5.22715 4.78958 5.00836 5.00837C4.78956 5.22716 4.66665 5.52391 4.66665 5.83333V22.1667C4.66665 22.4761 4.78956 22.7728 5.00836 22.9916C5.22715 23.2104 5.52389 23.3333 5.83331 23.3333H10.5C11.1443 23.3333 11.6666 23.8557 11.6666 24.5C11.6666 25.1443 11.1443 25.6667 10.5 25.6667H5.83331C4.90506 25.6667 4.01482 25.2979 3.35844 24.6415C2.70206 23.9852 2.33331 23.0949 2.33331 22.1667V5.83333C2.33331 4.90507 2.70206 4.01483 3.35844 3.35845C4.01482 2.70208 4.90506 2.33333 5.83331 2.33333H10.5C11.1443 2.33333 11.6666 2.85566 11.6666 3.49999C11.6666 4.14433 11.1443 4.66666 10.5 4.66666H5.83331Z" fill="#FF4848"/>
<path fill-rule="evenodd" clip-rule="evenodd" d="M17.8417 7.34171C18.2973 6.8861 19.036 6.8861 19.4916 7.34171L25.325 13.175C25.7806 13.6307 25.7806 14.3693 25.325 14.825L19.4916 20.6583C19.036 21.1139 18.2973 21.1139 17.8417 20.6583C17.3861 20.2027 17.3861 19.464 17.8417 19.0084L22.8501 14L17.8417 8.99162C17.3861 8.53601 17.3861 7.79732 17.8417 7.34171Z" fill="#FF4848"/>
<path fill-rule="evenodd" clip-rule="evenodd" d="M9.33331 14C9.33331 13.3557 9.85565 12.8333 10.5 12.8333H24.5C25.1443 12.8333 25.6666 13.3557 25.6666 14C25.6666 14.6443 25.1443 15.1667 24.5 15.1667H10.5C9.85565 15.1667 9.33331 14.6443 9.33331 14Z" fill="#FF4848"/>
</svg>
