<svg width="32" height="32" viewBox="0 0 32 32" fill="none" xmlns="http://www.w3.org/2000/svg">
<path d="M21.1598 16.06H18.2398V13.42C18.2398 12.8677 17.7921 12.42 17.2398 12.42H14.7598C14.2076 12.42 13.7598 12.8677 13.7598 13.42V16.06H10.8398C10.2876 16.06 9.83984 16.5077 9.83984 17.06V19.54C9.83984 20.0923 10.2876 20.54 10.8398 20.54H13.7598V23.74C13.7598 24.2923 14.2076 24.74 14.7598 24.74H17.2398C17.7921 24.74 18.2398 24.2923 18.2398 23.74V20.54H21.1598C21.7121 20.54 22.1598 20.0923 22.1598 19.54V17.06C22.1598 16.5077 21.7121 16.06 21.1598 16.06Z" stroke="black" stroke-width="1.5"/>
<path d="M25.7196 9.06H6.55957C4.35043 9.06 2.55957 10.8509 2.55957 13.06V24.66C2.55957 26.8691 4.35044 28.66 6.55957 28.66H25.7196C27.9287 28.66 29.7196 26.8691 29.7196 24.66V13.06C29.7196 10.8509 27.9287 9.06 25.7196 9.06Z" stroke="black" stroke-width="2"/>
<path d="M9.83984 9.34V6.61999C9.83984 4.41086 11.6307 2.62 13.8398 2.62H18.4398C20.649 2.62 22.4398 4.41086 22.4398 6.61999V9.34" stroke="black" stroke-width="2"/>
</svg>
