<svg width="30" height="30" viewBox="0 0 30 30" fill="none" xmlns="http://www.w3.org/2000/svg">
<g clip-path="url(#clip0_927_5885)">
<path d="M12.628 27.9806L8.59849 23.9046C8.97396 23.8134 9.30241 23.6979 9.5931 23.564C10.3331 23.223 10.7589 22.7906 11.023 22.5224C11.0308 22.5144 11.0386 22.5066 11.0461 22.4989L15.2601 18.2248L19.4592 22.4839C20.1362 23.1705 20.8465 23.5853 21.5862 23.8249L17.4779 27.9806L17.4774 27.9811C16.8317 28.6352 15.9594 29 15.053 29C14.1465 29 13.2743 28.6352 12.6285 27.9811L12.628 27.9806ZM15.5136 17.9677C15.5134 17.9678 15.5133 17.968 15.5131 17.9681L15.5136 17.9677ZM15.0072 17.9683C15.007 17.9681 15.0068 17.9679 15.0065 17.9677L15.0072 17.9683ZM17.5218 2.01891L17.5223 2.01943L21.6208 6.16518C20.8539 6.40468 20.1104 6.8288 19.4227 7.55316L15.2601 11.7752L11.0461 7.50112C11.0352 7.49004 11.0239 7.4785 11.0121 7.46654C10.7711 7.22102 10.3557 6.79801 9.63575 6.45724C9.34437 6.31933 9.01359 6.1992 8.63439 6.10402L12.6724 2.01943L12.6729 2.01891C13.3186 1.36479 14.1909 1 15.0974 1C16.0038 1 16.8761 1.36479 17.5218 2.01891Z" stroke="#202020" stroke-width="2"/>
<path d="M27.9338 11.7612L27.9367 11.7641C28.6086 12.4632 28.9955 13.4205 29 14.4289C29.0045 15.4364 28.6268 16.3968 27.962 17.1025C27.9614 17.1031 27.9608 17.1038 27.9602 17.1044L24.8847 20.3305H23.4232C22.8805 20.3305 22.3587 20.1042 21.9708 19.6991L17.4563 14.9845C17.2408 14.7595 17.0002 14.5734 16.7431 14.4266C16.9945 14.2812 17.23 14.098 17.4413 13.8773L21.9408 9.17838L21.9499 9.1689L21.9587 9.15918C22.3184 8.76326 22.8566 8.53133 23.3932 8.53133H24.8547L27.9338 11.7612ZM12.9499 13.8904C13.1621 14.104 13.4005 14.2855 13.6578 14.431C13.4035 14.5771 13.1655 14.7617 12.9521 14.9845L8.42756 19.7097C8.01785 20.1244 7.4916 20.3462 6.97021 20.3462H5.17873L2.03966 17.0536L2.03858 17.0525C1.37815 16.3619 1 15.4169 1 14.4231C1 13.4292 1.37815 12.4842 2.03858 11.7937L2.03966 11.7925L5.17873 8.5H6.95521C7.49782 8.5 8.01945 8.72616 8.40729 9.13099C8.40742 9.13112 8.40755 9.13126 8.40768 9.1314L12.936 13.8761L12.9429 13.8833L12.9499 13.8904Z" stroke="#202020" stroke-width="2"/>
</g>
<defs>
<clipPath id="clip0_927_5885">
<rect width="30" height="30" fill="white"/>
</clipPath>
</defs>
</svg>
