<svg width="22" height="22" viewBox="0 0 22 22" fill="none" xmlns="http://www.w3.org/2000/svg">
<path d="M7.70002 0C3.46045 0 0 3.46045 0 7.70002C0 11.9396 3.46045 15.4 7.70002 15.4C9.62283 15.4 11.3795 14.6829 12.7317 13.5094L13.2 13.9778V15.4L19.3446 21.5446C19.9518 22.1518 20.9374 22.1518 21.5446 21.5446C22.1518 20.9374 22.1518 19.9518 21.5446 19.3446L15.4 13.2H13.9778L13.5094 12.7317C14.6829 11.3795 15.4 9.62283 15.4 7.70002C15.4 3.46045 11.9396 0 7.70002 0ZM7.70002 2.20001C10.7506 2.20001 13.2 4.64942 13.2 7.70002C13.2 10.7506 10.7506 13.2 7.70002 13.2C4.64942 13.2 2.20001 10.7506 2.20001 7.70002C2.20001 4.64942 4.64942 2.20001 7.70002 2.20001Z" fill="#747476"/>
</svg>
