<svg width="29" height="28" viewBox="0 0 29 28" fill="none" xmlns="http://www.w3.org/2000/svg">
<g clip-path="url(#clip0_400_12721)">
<path fill-rule="evenodd" clip-rule="evenodd" d="M14.1394 11.6667C12.8379 11.6667 11.7828 12.7113 11.7828 14C11.7828 15.2887 12.8379 16.3333 14.1394 16.3333C15.4409 16.3333 16.496 15.2887 16.496 14C16.496 12.7113 15.4409 11.6667 14.1394 11.6667ZM9.42627 14C9.42627 11.4227 11.5364 9.33334 14.1394 9.33334C16.7424 9.33334 18.8525 11.4227 18.8525 14C18.8525 16.5773 16.7424 18.6667 14.1394 18.6667C11.5364 18.6667 9.42627 16.5773 9.42627 14Z" fill="#202020"/>
<path fill-rule="evenodd" clip-rule="evenodd" d="M14.1394 2.33333C13.8269 2.33333 13.5272 2.45625 13.3062 2.67504C13.0853 2.89384 12.9611 3.19058 12.9611 3.5V3.70299C12.9587 4.30593 12.7783 4.89501 12.442 5.39772C12.1058 5.90042 11.6284 6.29481 11.0687 6.53233C10.9691 6.57461 10.8643 6.60298 10.7573 6.61683C10.2487 6.79317 9.7012 6.83664 9.16824 6.74095C8.55435 6.63074 7.98789 6.34097 7.54189 5.90901L7.5326 5.90001L7.46195 5.82996C7.35252 5.72148 7.22211 5.63497 7.07907 5.57626C6.93602 5.51755 6.7827 5.48733 6.62785 5.48733C6.47301 5.48733 6.31968 5.51755 6.17664 5.57626C6.0336 5.63497 5.90365 5.72103 5.79422 5.8295L5.79329 5.83042C5.68374 5.93877 5.59683 6.06744 5.53753 6.20907C5.47823 6.3507 5.44771 6.50252 5.44771 6.65583C5.44771 6.80915 5.47823 6.96097 5.53753 7.1026C5.59683 7.24423 5.68374 7.3729 5.79329 7.48125L5.87364 7.56081C6.30991 8.00241 6.60251 8.56334 6.71382 9.17117C6.82292 9.7669 6.7529 10.381 6.51291 10.9372C6.29427 11.5049 5.91143 11.9964 5.41192 12.3502C4.90231 12.7111 4.29483 12.9118 3.66845 12.9263L3.6409 12.9267H3.53485C3.22235 12.9267 2.92265 13.0496 2.70168 13.2684C2.48071 13.4872 2.35657 13.7839 2.35657 14.0933C2.35657 14.4028 2.48071 14.6995 2.70168 14.9183C2.92265 15.1371 3.22235 15.26 3.53485 15.26H3.73986C4.34881 15.2624 4.94376 15.4411 5.45147 15.774C5.95742 16.1057 6.35473 16.5763 6.59488 17.128C6.84475 17.6916 6.91902 18.3164 6.80808 18.9222C6.69678 19.53 6.40412 20.0909 5.96785 20.5325L5.95876 20.5417L5.88801 20.6116C5.77846 20.72 5.69109 20.8491 5.63179 20.9907C5.5725 21.1324 5.54198 21.2842 5.54198 21.4375C5.54198 21.5908 5.5725 21.7426 5.63179 21.8843C5.69109 22.0259 5.778 22.1546 5.88755 22.2629L5.88848 22.2638C5.99791 22.3723 6.12786 22.4584 6.2709 22.5171C6.41395 22.5758 6.56727 22.606 6.72212 22.606C6.87696 22.606 7.03029 22.5758 7.17333 22.5171C7.31637 22.4584 7.44632 22.3723 7.55575 22.2638L7.6361 22.1843C8.0821 21.7523 8.64862 21.4626 9.2625 21.3524C9.86416 21.2444 10.4843 21.3137 11.0461 21.5513C11.6195 21.7678 12.1159 22.1469 12.4732 22.6414C12.8377 23.146 13.0404 23.7475 13.0551 24.3677L13.0554 24.395V24.5C13.0554 24.8094 13.1795 25.1062 13.4005 25.325C13.6215 25.5438 13.9212 25.6667 14.2337 25.6667C14.5462 25.6667 14.8459 25.5438 15.0669 25.325C15.2878 25.1062 15.412 24.8094 15.412 24.5V24.3017L15.412 24.297C15.4144 23.6941 15.5948 23.105 15.9311 22.6023C16.2662 22.1013 16.7414 21.7079 17.2987 21.4701C17.8679 21.2227 18.4988 21.1492 19.1106 21.259C19.7245 21.3693 20.291 21.659 20.7369 22.091L20.7462 22.1L20.8169 22.17C20.9263 22.2785 21.0567 22.365 21.1998 22.4237C21.3428 22.4825 21.4961 22.5127 21.651 22.5127C21.8058 22.5127 21.9592 22.4825 22.1022 22.4237C22.2452 22.365 22.3752 22.279 22.4846 22.1705L22.4856 22.1696C22.5951 22.0612 22.682 21.9326 22.7413 21.7909C22.8006 21.6493 22.8311 21.4975 22.8311 21.3442C22.8311 21.1908 22.8006 21.039 22.7413 20.8974C22.682 20.7558 22.5951 20.6271 22.4856 20.5187L22.4052 20.4392C21.9689 19.9976 21.6763 19.4367 21.565 18.8288C21.4541 18.2231 21.5283 17.5984 21.7782 17.0348C22.0183 16.483 22.4156 16.0124 22.9216 15.6807C23.4293 15.3477 24.0243 15.1691 24.6332 15.1667L24.6379 15.1667L24.744 15.1667C25.0565 15.1667 25.3562 15.0437 25.5772 14.825C25.7981 14.6062 25.9223 14.3094 25.9223 14C25.9223 13.6906 25.7981 13.3938 25.5772 13.175C25.3562 12.9562 25.0565 12.8333 24.744 12.8333H24.5437L24.539 12.8333C23.93 12.8309 23.3351 12.6523 22.8274 12.3193C22.3197 11.9864 21.9213 11.5138 21.6815 10.9596C21.6388 10.8609 21.6101 10.7572 21.5961 10.6512C21.418 10.1476 21.3741 9.60555 21.4708 9.07784C21.5821 8.47 21.8747 7.90913 22.311 7.46752L22.3201 7.45833L22.3908 7.38838C22.5004 7.28003 22.5878 7.15089 22.647 7.00926C22.7063 6.86763 22.7369 6.71582 22.7369 6.5625C22.7369 6.40918 22.7063 6.25737 22.647 6.11574C22.5878 5.97411 22.5008 5.84544 22.3913 5.73708L22.3904 5.73617C22.2809 5.62769 22.151 5.54164 22.0079 5.48293C21.8649 5.42422 21.7116 5.394 21.5567 5.394C21.4019 5.394 21.2486 5.42422 21.1055 5.48293C20.9625 5.54164 20.8325 5.62769 20.7231 5.73617L20.6427 5.81572C20.1967 6.24769 19.6302 6.53741 19.0163 6.64762C18.4045 6.75746 17.7736 6.68393 17.2043 6.43651C16.6471 6.19873 16.1719 5.80534 15.8368 5.30438C15.5006 4.80168 15.3201 4.2126 15.3177 3.60965L15.3177 3.605V3.5C15.3177 3.19058 15.1936 2.89384 14.9726 2.67504C14.7516 2.45625 14.4519 2.33333 14.1394 2.33333ZM22.8587 17.5L23.9367 17.9711C23.8749 18.1097 23.8565 18.2634 23.8838 18.4125C23.9108 18.56 23.9813 18.6962 24.0864 18.8039L24.151 18.8679C24.1511 18.8681 24.1508 18.8678 24.151 18.8679C24.4794 19.1929 24.7404 19.5792 24.9182 20.0039C25.0961 20.4288 25.1877 20.8842 25.1877 21.3442C25.1877 21.8041 25.0961 22.2596 24.9182 22.6845C24.7404 23.1093 24.4796 23.4954 24.151 23.8204L23.3183 22.995L24.1519 23.8195C23.8236 24.1449 23.4338 24.4031 23.0046 24.5792C22.5755 24.7553 22.1155 24.846 21.651 24.846C21.1865 24.846 20.7265 24.7553 20.2973 24.5792C19.8684 24.4032 19.4787 24.1452 19.1505 23.82C19.1504 23.8198 19.1507 23.8201 19.1505 23.82L19.0855 23.7555C18.9766 23.6515 18.8391 23.5817 18.6902 23.5549C18.5396 23.5279 18.3843 23.5462 18.2443 23.6073L18.2327 23.6124C18.0954 23.6707 17.9783 23.7673 17.8959 23.8906C17.8137 24.0135 17.7695 24.1573 17.7685 24.3046V24.5C17.7685 25.4283 17.3961 26.3185 16.7332 26.9749C16.0703 27.6313 15.1712 28 14.2337 28C13.2962 28 12.3971 27.6313 11.7342 26.9749C11.0712 26.3185 10.6988 25.4283 10.6988 24.5V24.4118C10.6932 24.2634 10.6438 24.1198 10.5564 23.9989C10.467 23.8751 10.3421 23.7808 10.1978 23.7283C10.1745 23.7198 10.1515 23.7106 10.1288 23.7007C9.98881 23.6395 9.83351 23.6212 9.68294 23.6483C9.53399 23.675 9.39643 23.7448 9.28759 23.8489L9.22303 23.9128C9.22287 23.913 9.22318 23.9127 9.22303 23.9128C8.89482 24.238 8.50468 24.4965 8.07575 24.6725C7.64663 24.8487 7.18665 24.9393 6.72212 24.9393C6.25758 24.9393 5.7976 24.8487 5.36848 24.6725C4.93976 24.4966 4.55023 24.2387 4.22213 23.9138C3.89347 23.5887 3.63275 23.2027 3.45486 22.7778C3.27697 22.3529 3.18541 21.8975 3.18541 21.4375C3.18541 20.9775 3.27697 20.5221 3.45486 20.0972C3.63275 19.6723 3.89347 19.2863 4.22213 18.9612L4.28673 18.8973C4.3918 18.7895 4.46232 18.6533 4.48932 18.5059C4.51662 18.3568 4.49819 18.203 4.4364 18.0644L4.4313 18.0529C4.37246 17.917 4.27483 17.8011 4.15029 17.7194C4.02625 17.6381 3.88097 17.5943 3.73222 17.5933H3.53485C2.59735 17.5933 1.69825 17.2246 1.03534 16.5682C0.372421 15.9118 0 15.0216 0 14.0933C0 13.1651 0.372421 12.2748 1.03534 11.6185C1.69825 10.9621 2.59735 10.5933 3.53485 10.5933H3.62398C3.77385 10.5878 3.91887 10.5388 4.04099 10.4523C4.16599 10.3638 4.2612 10.2401 4.31425 10.0973C4.32282 10.0742 4.33212 10.0514 4.34214 10.0289C4.40393 9.89032 4.42236 9.73655 4.39506 9.58746C4.36806 9.43999 4.29753 9.30379 4.19245 9.19603L4.12787 9.13208C3.79921 8.80703 3.53848 8.42102 3.3606 7.99612C3.18271 7.57123 3.09114 7.11579 3.09114 6.65583C3.09114 6.19588 3.18271 5.74044 3.3606 5.31554C3.5384 4.89085 3.79897 4.505 4.12741 4.18004C4.4556 3.85484 4.84529 3.59684 5.27421 3.42079C5.70334 3.24466 6.16332 3.154 6.62785 3.154C7.09239 3.154 7.55237 3.24466 7.98149 3.42079C8.41062 3.59693 8.80047 3.85508 9.12876 4.1805L9.19335 4.24445C9.30218 4.34849 9.43974 4.41832 9.58867 4.44506C9.73925 4.47209 9.89455 4.45384 10.0346 4.39266C10.11 4.35969 10.1885 4.33474 10.2688 4.31809C10.351 4.26288 10.4219 4.1921 10.4772 4.10937C10.5594 3.98655 10.6036 3.8427 10.6046 3.69542V3.5C10.6046 2.57174 10.977 1.6815 11.6399 1.02513C12.3028 0.368749 13.2019 0 14.1394 0C15.0769 0 15.976 0.368749 16.6389 1.02513C17.3019 1.6815 17.6743 2.57174 17.6743 3.5V3.60208C17.6752 3.74937 17.7194 3.89321 17.8016 4.01604C17.8841 4.13934 18.0012 4.23608 18.1384 4.29434L18.1501 4.29927C18.2901 4.36045 18.4453 4.37876 18.5959 4.35172C18.7448 4.32499 18.8824 4.25517 18.9912 4.15113L19.0558 4.08717C19.3841 3.76175 19.774 3.50359 20.2031 3.32746C20.6322 3.15132 21.0922 3.06066 21.5567 3.06066C22.0213 3.06066 22.4812 3.15132 22.9104 3.32746C23.3395 3.50359 23.7293 3.76175 24.0576 4.08717C24.3859 4.41203 24.6463 4.79771 24.824 5.22221C25.0019 5.6471 25.0934 6.10254 25.0934 6.5625C25.0934 7.02246 25.0019 7.4779 24.824 7.90279C24.6462 8.32748 24.3856 8.71333 24.0572 9.03829C24.057 9.03844 24.0573 9.03813 24.0572 9.03829L23.9921 9.10269C23.887 9.21046 23.8165 9.34666 23.7895 9.49412C23.7622 9.64322 23.7806 9.79699 23.8424 9.93561C23.8757 10.0103 23.9009 10.0881 23.9177 10.1676C23.9735 10.2489 24.045 10.3191 24.1285 10.3739C24.2526 10.4553 24.3979 10.4991 24.5466 10.5H24.744C25.6815 10.5 26.5806 10.8687 27.2435 11.5251C27.9064 12.1815 28.2788 13.0717 28.2788 14C28.2788 14.9283 27.9064 15.8185 27.2435 16.4749C26.5806 17.1312 25.6815 17.5 24.744 17.5H24.6409C24.4921 17.5009 24.3469 17.5447 24.2228 17.6261C24.0983 17.7077 24.0006 17.8237 23.9417 17.9596L22.8587 17.5Z" fill="#202020"/>
</g>
<defs>
<clipPath id="clip0_400_12721">
<rect width="28.2788" height="28" fill="white"/>
</clipPath>
</defs>
</svg>
