<svg width="28" height="28" viewBox="0 0 28 28" fill="none" xmlns="http://www.w3.org/2000/svg">
<path fill-rule="evenodd" clip-rule="evenodd" d="M1.70854 18.0419C2.80251 16.9479 4.28624 16.3333 5.83333 16.3333H15.1667C16.7138 16.3333 18.1975 16.9479 19.2915 18.0419C20.3854 19.1358 21 20.6196 21 22.1667V24.5C21 25.1443 20.4777 25.6667 19.8333 25.6667C19.189 25.6667 18.6667 25.1443 18.6667 24.5V22.1667C18.6667 21.2384 18.2979 20.3482 17.6415 19.6918C16.9852 19.0354 16.0949 18.6667 15.1667 18.6667H5.83333C4.90508 18.6667 4.01484 19.0354 3.35846 19.6918C2.70208 20.3482 2.33333 21.2384 2.33333 22.1667V24.5C2.33333 25.1443 1.811 25.6667 1.16667 25.6667C0.522334 25.6667 0 25.1443 0 24.5V22.1667C0 20.6196 0.614582 19.1358 1.70854 18.0419Z" fill="#202020"/>
<path fill-rule="evenodd" clip-rule="evenodd" d="M10.5 4.66667C8.56702 4.66667 7.00002 6.23367 7.00002 8.16667C7.00002 10.0997 8.56702 11.6667 10.5 11.6667C12.433 11.6667 14 10.0997 14 8.16667C14 6.23367 12.433 4.66667 10.5 4.66667ZM4.66669 8.16667C4.66669 4.94501 7.27836 2.33333 10.5 2.33333C13.7217 2.33333 16.3334 4.94501 16.3334 8.16667C16.3334 11.3883 13.7217 14 10.5 14C7.27836 14 4.66669 11.3883 4.66669 8.16667Z" fill="#202020"/>
<path fill-rule="evenodd" clip-rule="evenodd" d="M22.2037 17.36C22.3648 16.7361 23.0011 16.361 23.625 16.522C24.8764 16.8452 25.9851 17.5748 26.777 18.5963C27.5688 19.6178 27.999 20.8733 28 22.1658L28 24.5C28 25.1443 27.4777 25.6667 26.8333 25.6667C26.189 25.6667 25.6667 25.1443 25.6667 24.5L25.6667 22.1675C25.6667 22.1674 25.6667 22.1677 25.6667 22.1675C25.666 21.3922 25.4079 20.6386 24.9329 20.0258C24.4577 19.4129 23.7925 18.9752 23.0417 18.7813C22.4178 18.6202 22.0426 17.9839 22.2037 17.36Z" fill="#202020"/>
<path fill-rule="evenodd" clip-rule="evenodd" d="M17.5364 3.36229C17.6963 2.73809 18.3318 2.36164 18.956 2.52146C20.2108 2.84273 21.323 3.57248 22.1172 4.59566C22.9114 5.61884 23.3425 6.87725 23.3425 8.1725C23.3425 9.46775 22.9114 10.7262 22.1172 11.7493C21.323 12.7725 20.2108 13.5023 18.956 13.8235C18.3318 13.9834 17.6963 13.6069 17.5364 12.9827C17.3766 12.3585 17.7531 11.7229 18.3773 11.5631C19.1301 11.3704 19.7974 10.9325 20.2739 10.3186C20.7505 9.70469 21.0091 8.94965 21.0091 8.1725C21.0091 7.39535 20.7505 6.6403 20.2739 6.0264C19.7974 5.41249 19.1301 4.97464 18.3773 4.78187C17.7531 4.62205 17.3766 3.98648 17.5364 3.36229Z" fill="#202020"/>
</svg>
