<svg width="28" height="28" viewBox="0 0 28 28" fill="none" xmlns="http://www.w3.org/2000/svg">
<path d="M14 0C6.26875 0 0 6.26875 0 14C0 21.7312 6.26875 28 14 28C21.7312 28 28 21.7312 28 14C28 6.26875 21.7312 0 14 0ZM23.0156 21.3375L6.67813 5C5.6 5 5 5.6 5 6.67813L21.3375 23.0156C19.3375 24.6469 16.7812 25.625 14 25.625C7.58125 25.625 2.375 20.4187 2.375 14C2.375 7.58125 7.58125 2.375 14 2.375C20.4187 2.375 25.625 7.58125 25.625 14C25.625 16.7812 24.6469 19.3375 23.0156 21.3375Z" fill="#FBFBFB"/>
</svg>
